<svg height="511pt" viewBox="0 -16 511.99988 511" width="511pt" xmlns="http://www.w3.org/2000/svg">
<path d="m511.445312 218.070312-18.71875-53.855468c-7.933593-22.816406-25.472656-40.957032-47.714843-49.777344 0-.617188.007812-1.238281-.007813-1.859375-.488281-18.9375-7.539062-37.289063-19.855468-51.683594l-37.070313-43.320312c-1.484375-1.734375-3.519531-2.910157-5.765625-3.328125l-56.050781-10.445313c-16.957031-3.160156-34.527344-.886719-50.097657 6.355469-.15625-.082031-.308593-.171875-.460937-.253906l-15.597656-8.242188c-2.921875-1.546875-6.421875-1.546875-9.347657 0l-15.59375 8.246094c-3.855468 2.035156-7.515624 4.335938-10.96875 6.855469-15.464843-7.214844-32.949218-9.523438-49.792968-6.46875l-56.101563 10.171875c-2.246093.410156-4.289062 1.574218-5.78125 3.304687l-37.277343 43.136719c-15.796876 18.28125-22.734376 42.539062-19.253907 66.210938-.535156.3125-1.078125.613281-1.605469.9375-16.15625 9.890624-28.527343 25.175781-34.832031 43.035156l-18.980469 53.765625c-.761718 2.152343-.761718 4.503906 0 6.65625l18.980469 53.765625c5.738281 16.261718 16.496094 30.34375 30.554688 40.207031.003906.175781.003906.347656.007812.523437l.65625 17.628907c.125 3.308593 1.875 6.339843 4.675781 8.097656l14.9375 9.382813c3.691407 2.320312 7.511719 4.34375 11.421876 6.078124 1.488281 16.996094 8.226562 33.289063 19.292968 46.347657l36.863282 43.496093c1.476562 1.746094 3.503906 2.929688 5.75 3.359376l56 10.714843c5.152343.984375 10.34375 1.46875 15.503906 1.46875 18.589844 0 36.777344-6.277343 51.464844-17.898437.535156.304687 1.066406.625 1.609374.921875 12.179688 6.617187 25.84375 10.039062 39.589844 10.039062 5.042969 0 10.101563-.460937 15.097656-1.394531l14.035157-2.613281c5.429687-1.011719 9.011719-6.234375 8-11.664063-1.011719-5.429687-6.234375-9.007812-11.660157-8l-14.039062 2.617188c-29.042969 5.410156-58.28125-10.484375-69.53125-37.792969-8.355469-20.269531-5.664062-42.976563 7.199219-60.734375 12.636719-17.449219 19.570312-38.855469 19.613281-60.398438 4.671875-1.75 9.066406-4.074218 13.097656-6.882812.195313.273438.40625.539062.632813.792969l.800781.902343c8.121094 9.171876 14.140625 19.734376 17.882812 31.398438 6.808594 21.210938 21.183594 39.023438 40.476563 50.164062 13.90625 8.027344 29.34375 12.027344 44.765625 12.027344 8.460938 0 16.914062-1.210937 25.109375-3.617187-2.460937 8.671875-6.769531 16.785156-12.691406 23.703125l-9.738281 11.378906c-3.589844 4.195312-3.097657 10.507812 1.097656 14.101562 1.882812 1.613282 4.195312 2.402344 6.496094 2.402344 2.820312 0 5.625-1.191406 7.605468-3.5l9.734375-11.378906c11.214844-13.101562 18.03125-29.457031 19.546875-46.566406.148438-.09375.300782-.175782.449219-.269532l14.9375-9.382812c2.800781-1.761719 4.550781-4.792969 4.675781-8.097656l.65625-17.628906c.160156-4.355469 0-8.675782-.453125-12.925782 13.976563-9.789062 24.71875-23.773437 30.496094-39.886718l19.238281-53.671876c.773438-2.148437.785156-4.5.035156-6.65625zm-188.847656-194.605468 52.582032 9.796875 34.773437 40.636719c19.203125 22.441406 20.0625 55.710937 2.039063 79.109374-13.378907 17.371094-34.386719 26.398438-56.199219 24.136719-21.441407-2.226562-43.453125 2.480469-62.136719 13.226563-3.792969-3.140625-7.984375-5.8125-12.480469-7.9375.132813-.300782.257813-.605469.363281-.925782l.382813-1.144531c3.882813-11.617187 10.019531-22.109375 18.25-31.1875 14.964844-16.5 23.207031-37.855469 23.207031-60.132812 0-24.867188-10.210937-48.085938-27.648437-64.722657 8.738281-2.203124 17.914062-2.523437 26.867187-.855468zm-78.085937 4.121094 10.921875-5.773438 10.917968 5.773438c22.839844 12.074218 37.027344 35.625 37.027344 61.457031 0 17.300781-6.402344 33.882812-18.023437 46.699219-10.101563 11.140624-17.640625 24.023437-22.402344 38.285156l-.382813 1.140625c-.214843.640625-.355468 1.28125-.4375 1.921875-2.050781-.214844-4.132812-.328125-6.242187-.328125-2.417969 0-4.800781.160156-7.144531.445312-.078125-.679687-.226563-1.363281-.449219-2.039062l-.382813-1.140625c-4.761718-14.261719-12.300781-27.144532-22.402343-38.285156-11.621094-12.816407-18.023438-29.398438-18.023438-46.699219 0-25.832031 14.1875-49.382813 37.023438-61.457031zm-154.136719 52.398437 34.972656-40.46875 52.625-9.546875c10.0625-1.824219 20.425782-1.117188 30.101563 1.929688-13.09375 15.777343-20.585938 35.855468-20.585938 57.144531 0 22.277343 8.242188 43.632812 23.207031 60.132812 8.230469 9.074219 14.371094 19.566407 18.25 31.191407l.382813 1.140624c.148437.449219.335937.871094.539063 1.28125-10.785157 5.285157-19.730469 13.753907-25.625 24.171876-13.550782-8.710938-24.5-21.371094-31.078126-36.09375-11.800781-26.394532-35.953124-44.4375-64.613281-48.265626-11.195312-1.496093-22.550781-.632812-33.324219 2.386719-1.015624-16.253906 4.324219-32.480469 15.148438-45.003906zm-69.769531 154.199219 17.804687-50.4375c9.832032-27.851563 38.21875-45.226563 67.492188-41.320313 21.734375 2.902344 40.050781 16.585938 49 36.605469 8.792968 19.671875 23.867187 36.378906 42.507812 47.1875-.539062 3.207031-.835937 6.5-.835937 9.859375 0 1.660156.085937 3.300781.21875 4.925781-.324219.03125-.652344.082032-.980469.148438l-1.183594.242187c-12.007812 2.445313-24.164062 2.378907-36.132812-.214843-21.773438-4.707032-44.390625-1.164063-63.683594 9.972656-21.535156 12.433594-36.539062 32.882812-42.226562 56.304687-6.277344-6.464843-11.144532-14.253906-14.175782-22.839843zm49.957031 109.425781-.460938-12.34375c-.960937-25.816406 12.339844-49.875 34.710938-62.792969 14.984375-8.648437 32.546875-11.398437 49.457031-7.742187 14.695313 3.179687 29.621094 3.265625 44.351563.261719l1.179687-.242188c.667969-.132812 1.300781-.335938 1.902344-.585938 1.832031 4.109376 4.109375 7.976563 6.789063 11.53125-.554688.410157-1.074219.878907-1.546876 1.414063l-.800781.902344c-9.96875 11.257812-17.359375 24.226562-21.953125 38.546875-5.289062 16.472656-16.453125 30.308594-31.433594 38.957031-22.375 12.914063-49.859374 12.402344-71.734374-1.335937zm170.222656-3.28125c-16.960937 23.417969-20.511718 53.359375-9.492187 80.089844 4.304687 10.445312 10.726562 19.847656 18.726562 27.667969-13.570312 9.007812-30.292969 12.496093-46.550781 9.382812l-52.53125-10.050781-34.578125-40.804688c-6.609375-7.800781-11.179687-17.125-13.378906-27.027343 4.964843.847656 9.988281 1.277343 15.011719 1.277343 15.421874 0 30.863281-4 44.765624-12.027343 19.292969-11.136719 33.667969-28.953126 40.476563-50.164063 3.746094-11.664063 9.761719-22.230469 17.882813-31.394531l.796874-.902344c.316407-.355469.589844-.730469.84375-1.117188 9.46875 6.398438 20.875 10.140626 33.136719 10.140626.203125 0 .40625-.015626.609375-.015626-.773437 16.085938-6.261718 31.890626-15.71875 44.945313zm15.105469-64.929687c-21.679687 0-39.316406-17.640626-39.316406-39.320313s17.636719-39.316406 39.316406-39.316406 39.320313 17.636719 39.320313 39.316406-17.636719 39.320313-39.320313 39.320313zm186.253906 55.070312-.460937 12.34375-10.460938 6.570312c-21.875 13.742188-49.363281 14.25-71.734375 1.335938-14.984375-8.648438-26.148437-22.484375-31.433593-38.957031-4.597657-14.316407-11.984376-27.285157-21.957032-38.546875l-.796875-.902344c-.453125-.511719-.945312-.960938-1.46875-1.355469 2.621094-3.59375 4.855469-7.488281 6.628907-11.628906.621093.273437 1.28125.484375 1.972656.625l1.183594.242187c14.738281 3.003907 29.664062 2.917969 44.359374-.261718 16.910157-3.65625 34.472657-.90625 49.457032 7.742187 22.371094 12.917969 35.671875 36.976563 34.710937 62.792969zm31.203125-58.816406c-3.449218 9.625-9.242187 18.246094-16.722656 25.101562-7.117188-19.226562-20.757812-35.753906-39.191406-46.398437-19.292969-11.140625-41.910156-14.679688-63.683594-9.972657-11.972656 2.589844-24.128906 2.664063-36.132812.214844l-1.179688-.242187c-.464844-.09375-.925781-.144531-1.382812-.171875.089843-1.359375.15625-2.722656.15625-4.105469 0-11.011719-3.027344-21.328125-8.277344-30.175781 14.320312-7.378906 30.757812-10.523438 46.796875-8.867188 28.761719 2.980469 56.460937-8.917968 74.105469-31.824218 6.890624-8.945313 11.824218-19.210938 14.59375-30.050782 14.585937 7.25 25.96875 19.988282 31.402343 35.621094l17.5625 50.519531zm0 0"/><path d="m255.890625 210.929688c-13.863281 0-25.144531 11.28125-25.144531 25.148437s11.28125 25.144531 25.144531 25.144531c13.867187 0 25.148437-11.277344 25.148437-25.144531s-11.28125-25.148437-25.148437-25.148437zm0 30.296874c-2.835937 0-5.144531-2.3125-5.144531-5.148437s2.308594-5.144531 5.144531-5.144531c2.839844 0 5.148437 2.308594 5.148437 5.144531s-2.308593 5.148437-5.148437 5.148437zm0 0"/><path d="m377.199219 439.976562c-2.628907 0-5.210938 1.070313-7.070313 2.929688s-2.929687 4.4375-2.929687 7.070312c0 2.628907 1.070312 5.210938 2.929687 7.070313s4.441406 2.929687 7.070313 2.929687c2.628906 0 5.210937-1.070312 7.070312-2.929687s2.929688-4.441406 2.929688-7.070313c0-2.632812-1.070313-5.210937-2.929688-7.070312s-4.441406-2.929688-7.070312-2.929688zm0 0"/>
</svg>