<?xml version="1.0" encoding="utf-8"?>
<!-- Generator: Adobe Illustrator 23.0.2, SVG Export Plug-In . SVG Version: 6.00 Build 0)  -->
<svg version="1.1" id="Layer_1" xmlns="http://www.w3.org/2000/svg" xmlns:xlink="http://www.w3.org/1999/xlink" x="0px" y="0px"
	 viewBox="0 0 72 72" style="enable-background:new 0 0 72 72;" xml:space="preserve">
<style type="text/css">
	.st0{fill:none;stroke:#000000;stroke-width:0.1;}
</style>
<g>
	<path class="st0" d="M52.66,55.12V37.33H19.29v17.79c0,3.63,0.51,6.16,1.54,7.59c1.03,1.43,2.88,2.15,5.56,2.15v1.78H4.25v-1.78
		c2.68,0,4.51-0.72,5.48-2.17c0.97-1.45,1.46-3.96,1.46-7.55v-38.2c0-3.76-0.5-6.33-1.49-7.71C8.72,7.84,6.9,7.15,4.25,7.15V5.38
		h22.14v1.78c-2.68,0-4.53,0.74-5.56,2.22c-1.03,1.48-1.54,3.99-1.54,7.55v17.44h33.37V16.92c0-3.76-0.48-6.33-1.44-7.7
		c-0.96-1.38-2.76-2.06-5.4-2.06V5.38h21.93v1.78c-2.61,0-4.42,0.72-5.43,2.14c-1.01,1.43-1.51,3.97-1.51,7.63v38.2
		c0,3.66,0.5,6.19,1.51,7.6c1.01,1.41,2.82,2.12,5.43,2.12v1.78H45.82v-1.78c2.72,0,4.53-0.71,5.46-2.12
		C52.2,61.32,52.66,58.78,52.66,55.12z"/>
</g>
</svg>
