<?xml version="1.0" encoding="utf-8"?>
<!-- Generator: Adobe Illustrator 23.0.2, SVG Export Plug-In . SVG Version: 6.00 Build 0)  -->
<svg version="1.1" id="Capa_1" xmlns="http://www.w3.org/2000/svg" xmlns:xlink="http://www.w3.org/1999/xlink" x="0px" y="0px"
	 viewBox="0 0 72 72" style="enable-background:new 0 0 72 72;" xml:space="preserve">
<path d="M51.9,34.4c-0.3-0.3-0.7-0.5-1.2-0.5h-0.6l1.8-24.8c0.1-0.9-0.6-1.7-1.5-1.7l-1.5-0.1l0.4-5.2c0.1-0.9-0.6-1.7-1.5-1.7
	c-0.9-0.1-1.7,0.6-1.7,1.5L45.6,7L44,6.9c-0.4,0-0.9,0.1-1.2,0.4c-0.3,0.3-0.5,0.7-0.6,1.1l-1.8,25.5H40V6.2c0-0.5,0-3.2-1.6-4.8
	C37.6,0.5,36.5,0,35.2,0c-1.3,0-2.4,0.5-3.2,1.3c-1.6,1.7-1.6,4.4-1.6,4.8l0,27.7h-0.5l-0.8-13c0-0.2-0.1-0.4-0.2-0.6l-3.6-7.7
	l-0.1-1.8c-0.1-0.9-0.8-1.6-1.7-1.5c-0.9,0.1-1.6,0.8-1.5,1.7l0.1,1.8L19.4,21c-0.1,0.2-0.1,0.4-0.1,0.6l0.8,12.3h-0.4
	c-0.4,0-0.9,0.2-1.2,0.5c-0.3,0.3-0.5,0.8-0.4,1.2l2.2,34.8c0.1,0.9,0.8,1.5,1.6,1.5h26.6c0.9,0,1.6-0.7,1.6-1.5l2.2-34.8
	C52.3,35.2,52.2,34.8,51.9,34.4z"/>
</svg>
